PathFileType	4	(X/Y/Z)	/Users/itak/Documents/Research/Walk-IL/dataset/trc/00476_00167.trc
DataRate	CameraRate	NumFrames	NumMarkers	Units	OrigDataRate	OrigDataStartFrame	OrigNumFrames
100.000000	100.000000	4	53	mm	100.000000	0	560
Frame#	Time	RPSI			LPSI			L3			STRN			T10			C7			CLAV			RBAK			LBAK			LSHO			LUPA			LAEL			LAOL			LWTS			LWPS			LFRA			LIFD			LHPS			LHTS			RSHO			RUPA			RAEL			RAOL			RWTS			RWPS			RFRA			RIFD			RHTS			RHPS			RBHD			LFHD			RFHD			LBHD			LHIP			RHIP			RASI			LASI			LKNE			LTHI			LANK			LTIP			LTOE			LMT1			LMT5			LHEE			RKNE			RTHI			RANK			RTIP			RTOE			RMT1			RMT5			RHEE			
		X1	Y1	Z1	X2	Y2	Z2	X3	Y3	Z3	X4	Y4	Z4	X5	Y5	Z5	X6	Y6	Z6	X7	Y7	Z7	X8	Y8	Z8	X9	Y9	Z9	X10	Y10	Z10	X11	Y11	Z11	X12	Y12	Z12	X13	Y13	Z13	X14	Y14	Z14	X15	Y15	Z15	X16	Y16	Z16	X17	Y17	Z17	X18	Y18	Z18	X19	Y19	Z19	X20	Y20	Z20	X21	Y21	Z21	X22	Y22	Z22	X23	Y23	Z23	X24	Y24	Z24	X25	Y25	Z25	X26	Y26	Z26	X27	Y27	Z27	X28	Y28	Z28	X29	Y29	Z29	X30	Y30	Z30	X31	Y31	Z31	X32	Y32	Z32	X33	Y33	Z33	X34	Y34	Z34	X35	Y35	Z35	X36	Y36	Z36	X37	Y37	Z37	X38	Y38	Z38	X39	Y39	Z39	X40	Y40	Z40	X41	Y41	Z41	X42	Y42	Z42	X43	Y43	Z43	X44	Y44	Z44	X45	Y45	Z45	X46	Y46	Z46	X47	Y47	Z47	X48	Y48	Z48	X49	Y49	Z49	X50	Y50	Z50	X51	Y51	Z51	X52	Y52	Z52	X53	Y53	Z53	

1	0	-1335.855590820312	965.226318359375	-94.84884643554688	-1318.468872070312	963.4229736328125	-234.9140319824219	-1317.586181640625	1056.905395507812	-150.2508239746094	-1054.937866210938	1254.94287109375	-127.2912292480469	-1336.327758789062	1179.613525390625	-158.7769317626953	-1277.501953125	1448.6162109375	-136.3424224853516	-1092.688354492188	1367.618286132812	-131.9824371337891	-1348.60888671875	1326.80908203125	-50.59453582763672	-1300.019897460938	1403.171142578125	-239.4797515869141	-1189.248901367188	1426.234985351562	-306.8744812011719	-1184.669799804688	1307.031860351562	-406.0870971679688	-1149.880004882812	1088.763427734375	-429.4618225097656	-1239.563720703125	1073.8046875	-379.3577270507812	-1073.289916992188	890.3942260742188	-365.2705078125	-1108.4013671875	874.4081420898438	-428.5766296386719	-1124.801391601562	1001.601989746094	-432.1107482910156	-1051.8017578125	738.9588012695312	-384.5783081054688	-1098.032836914062	799.0022583007812	-430.9327087402344	-1053.833740234375	805.8504028320312	-374.0715637207031	-1226.018798828125	1416.323974609375	29.90263938903809	-1249.970825195312	1354.894897460938	102.9890518188477	-1249.916748046875	1064.804931640625	153.2110290527344	-1296.014038085938	1047.290649414062	106.6332321166992	-1133.971923828125	865.3084106445312	112.9805755615234	-1205.8125	846.5885620117188	163.1442413330078	-1244.895751953125	1005.752136230469	161.1581573486328	-1130.316772460938	708.9967041015625	117.1852569580078	-1116.91650390625	768.1123657226562	127.1052780151367	-1185.0537109375	761.2999877929688	161.3636169433594	-1241.519165039062	1640.8955078125	-55.15072250366211	-1051.334838867188	1672.163330078125	-130.7120819091797	-1112.224731445312	1667.480712890625	-15.2471752166748	-1173.881958007812	1650.817993164062	-219.5071411132812	-1173.787475585938	865.4681396484375	-339.5270080566406	-1236.991577148438	860.58154296875	53.11724853515625	-1122.731079101562	900.078125	6.974018573760986	-1081.909545898438	899.4228515625	-249.7136077880859	-1181.59521484375	447.8339233398438	-322.2271423339844	-1150.591796875	598.87109375	-334.6680908203125	-1252.0390625	41.57854461669922	-340.2874450683594	-1190.18017578125	302.0125732421875	-342.8770751953125	-1028.50146484375	44.08383560180664	-243.7699584960938	-1108.7275390625	50.52320098876953	-225.0780487060547	-1096.886474609375	47.74314498901367	-337.3734130859375	-1303.672607421875	44.50638580322266	-282.1776733398438	-1219.134033203125	468.5350952148438	31.16485214233398	-1194.097534179688	727.8511352539062	68.91546630859375	-1284.836791992188	45.50173950195312	35.17354202270508	-1223.84814453125	326.5276184082031	42.94077682495117	-1068.126220703125	49.16141510009766	2.86998987197876	-1128.316528320312	52.68975448608398	-39.39236068725586	-1153.644409179688	48.8523063659668	68.00627899169922	-1347.380981445312	37.09106063842773	-11.79479217529297	
2	0.01	-1335.918212890625	965.2559814453125	-94.90920257568359	-1318.4990234375	963.44921875	-235.0063171386719	-1317.599731445312	1056.9365234375	-150.3482360839844	-1054.900756835938	1254.916381835938	-127.319091796875	-1336.348266601562	1179.653442382812	-158.8265380859375	-1277.425537109375	1448.633422851562	-136.4078674316406	-1092.642822265625	1367.586791992188	-132.0227661132812	-1348.588012695312	1326.858764648438	-50.65246200561523	-1299.957885742188	1403.201538085938	-239.5408935546875	-1189.125610351562	1426.235107421875	-306.9530029296875	-1184.58203125	1307.02685546875	-406.1436462402344	-1149.83544921875	1088.739501953125	-429.4688720703125	-1239.532348632812	1073.801025390625	-379.3976135253906	-1073.311645507812	890.3486328125	-365.2335510253906	-1108.354370117188	874.3939819335938	-428.5679016113281	-1124.745483398438	1001.578369140625	-432.1073913574219	-1054.646240234375	736.8116455078125	-383.3953247070312	-1098.05615234375	798.9526977539062	-430.8478088378906	-1053.892700195312	805.81689453125	-374.0078430175781	-1225.965209960938	1416.344360351562	29.83576202392578	-1249.960083007812	1354.912841796875	102.9523696899414	-1249.9541015625	1064.80859375	153.1192626953125	-1296.111450195312	1047.322509765625	106.6327285766602	-1134.01953125	865.3206176757812	112.9042358398438	-1205.888427734375	846.5947265625	163.0130004882812	-1244.950561523438	1005.759399414062	161.0708160400391	-1130.43603515625	709.0025634765625	116.9308395385742	-1116.822509765625	768.1279907226562	127.0045471191406	-1185.167236328125	761.308837890625	161.2514953613281	-1241.49609375	1640.879150390625	-55.19857788085938	-1051.283935546875	1672.181518554688	-130.7102661132812	-1112.20263671875	1667.516723632812	-15.24031162261963	-1173.844482421875	1650.828979492188	-219.5155944824219	-1173.811767578125	865.4369506835938	-339.5969543457031	-1237.071166992188	860.5751953125	53.0257568359375	-1122.73974609375	900.1168823242188	6.953782558441162	-1081.94677734375	899.4169311523438	-249.7850341796875	-1181.644653320312	447.8440246582031	-322.2854919433594	-1150.654418945312	598.8908081054688	-334.7883605957031	-1252.035888671875	41.56454467773438	-340.2890014648438	-1190.223266601562	302.0198974609375	-342.9312133789062	-1028.50048828125	44.09037399291992	-243.7779235839844	-1108.730102539062	50.53155899047852	-225.0919952392578	-1096.896362304688	47.72962951660156	-337.3920593261719	-1303.6708984375	44.50251770019531	-282.1832885742188	-1219.166015625	468.5455627441406	31.10924911499023	-1194.4150390625	727.86083984375	68.82633972167969	-1284.840087890625	45.50848770141602	35.17509460449219	-1223.855712890625	326.5349731445312	42.89483261108398	-1068.122314453125	49.16748428344727	2.887324333190918	-1128.315795898438	52.6878547668457	-39.39551544189453	-1153.638061523438	48.84952163696289	67.99467468261719	-1347.374877929688	37.09246063232422	-11.7987060546875	
3	0.02	-1335.998291015625	965.2916259765625	-94.98291015625	-1318.535522460938	963.4791870117188	-235.1223754882812	-1317.616333007812	1056.9755859375	-150.4749145507812	-1054.857299804688	1254.88037109375	-127.3448028564453	-1336.369018554688	1179.70458984375	-158.886962890625	-1277.334716796875	1448.654663085938	-136.4769897460938	-1092.58349609375	1367.546630859375	-132.0651245117188	-1348.565307617188	1326.918701171875	-50.72035598754883	-1299.880004882812	1403.241577148438	-239.6112365722656	-1188.974975585938	1426.238647460938	-307.0391540527344	-1184.474853515625	1307.02392578125	-406.2045593261719	-1149.781372070312	1088.713623046875	-429.4743347167969	-1239.490356445312	1073.803833007812	-379.4471435546875	-1073.331420898438	890.2985229492188	-365.1873779296875	-1108.296997070312	874.3798828125	-428.5525512695312	-1124.673461914062	1001.554443359375	-432.1007690429688	-1057.2216796875	734.8073120117188	-382.2575073242188	-1098.082397460938	798.904052734375	-430.7530822753906	-1053.963012695312	805.7835693359375	-373.928466796875	-1225.90283203125	1416.36572265625	29.76257705688477	-1249.946411132812	1354.930419921875	102.9083633422852	-1250.001708984375	1064.8076171875	153.0015869140625	-1296.22119140625	1047.355834960938	106.6055145263672	-1134.08740234375	865.3229370117188	112.7987594604492	-1205.989501953125	846.5957641601562	162.8523406982422	-1245.022827148438	1005.763488769531	160.9590148925781	-1130.581420898438	709.000244140625	116.6185150146484	-1116.758911132812	768.1370239257812	126.8610000610352	-1185.317749023438	761.314697265625	161.1161804199219	-1241.46484375	1640.859619140625	-55.24701309204102	-1051.21337890625	1672.202758789062	-130.702880859375	-1112.173828125	1667.552001953125	-15.22635746002197	-1173.790893554688	1650.842041015625	-219.5210113525391	-1173.838500976562	865.4005126953125	-339.6824340820312	-1237.16943359375	860.57177734375	52.91679382324219	-1122.746215820312	900.1654663085938	6.934075832366943	-1081.994995117188	899.4052124023438	-249.8709716796875	-1181.714965820312	447.8534240722656	-322.3671875	-1150.729858398438	598.9169921875	-334.9316711425781	-1252.03125	41.54666519165039	-340.2983093261719	-1190.276489257812	302.0260925292969	-342.9986877441406	-1028.500610351562	44.09986877441406	-243.7895050048828	-1108.73193359375	50.54710006713867	-225.1136322021484	-1096.902709960938	47.7108039855957	-337.41552734375	-1303.668334960938	44.49785232543945	-282.19384765625	-1219.203979492188	468.5587768554688	31.0412712097168	-1194.739135742188	727.8760986328125	68.72344970703125	-1284.842407226562	45.51771545410156	35.17563247680664	-1223.864501953125	326.5448913574219	42.84017181396484	-1068.1181640625	49.1749382019043	2.910871267318726	-1128.314453125	52.68489074707031	-39.40026092529297	-1153.629516601562	48.84681701660156	67.97962951660156	-1347.368286132812	37.09532165527344	-11.80446624755859	
4	0.03	-1336.093505859375	965.3313598632812	-95.06716156005859	-1318.576293945312	963.51025390625	-235.2564544677734	-1317.636352539062	1057.021240234375	-150.6248931884766	-1054.81298828125	1254.83544921875	-127.3636474609375	-1336.38720703125	1179.76513671875	-158.9549560546875	-1277.235473632812	1448.678955078125	-136.5409851074219	-1092.51220703125	1367.499389648438	-132.1027374267578	-1348.54296875	1326.98486328125	-50.79326248168945	-1299.78955078125	1403.290283203125	-239.6836242675781	-1188.805419921875	1426.246826171875	-307.1230163574219	-1184.3525390625	1307.026000976562	-406.2626953125	-1149.720947265625	1088.6884765625	-429.4764099121094	-1239.43896484375	1073.816284179688	-379.5031127929688	-1073.344848632812	890.2499389648438	-365.1336364746094	-1108.233032226562	874.3682861328125	-428.5298156738281	-1124.587036132812	1001.534729003906	-432.0895080566406	-1059.219848632812	733.1841430664062	-381.2919006347656	-1098.109252929688	798.8640747070312	-430.6564025878906	-1054.042602539062	805.7566528320312	-373.8370056152344	-1225.836791992188	1416.384887695312	29.69148445129395	-1249.930786132812	1354.9443359375	102.8600997924805	-1250.058227539062	1064.799072265625	152.8621673583984	-1296.335083007812	1047.38623046875	106.5448608398438	-1134.177612304688	865.3095092773438	112.6635894775391	-1206.113159179688	846.5879516601562	162.6705169677734	-1245.1123046875	1005.76123046875	160.8273620605469	-1130.745483398438	708.985595703125	116.2683944702148	-1116.7451171875	768.13427734375	126.6771621704102	-1185.50244140625	761.3143920898438	160.9651641845703	-1241.425170898438	1640.837890625	-55.28852844238281	-1051.123291015625	1672.224975585938	-130.6869201660156	-1112.138916015625	1667.577880859375	-15.2034912109375	-1173.719604492188	1650.856811523438	-219.5205688476562	-1173.865234375	865.3612060546875	-339.7792358398438	-1237.284057617188	860.5736083984375	52.79811096191406	-1122.749755859375	900.2178955078125	6.913815498352051	-1082.052490234375	899.38623046875	-249.9654235839844	-1181.803833007812	447.8590393066406	-322.4708557128906	-1150.813598632812	598.9492797851562	-335.0889587402344	-1252.025634765625	41.52528762817383	-340.3175964355469	-1190.3349609375	302.0292663574219	-343.0756225585938	-1028.502319335938	44.11260223388672	-243.8055877685547	-1108.733642578125	50.57073211669922	-225.1438140869141	-1096.903564453125	47.68721008300781	-337.44287109375	-1303.664916992188	44.49225997924805	-282.2107849121094	-1219.245239257812	468.5744323730469	30.96502113342285	-1195.0390625	727.8973999023438	68.61357879638672	-1284.84228515625	45.52930450439453	35.17420959472656	-1223.873779296875	326.5573120117188	42.78086853027344	-1068.114013671875	49.1834716796875	2.939885377883911	-1128.312622070312	52.68065643310547	-39.40657424926758	-1153.619506835938	48.84491348266602	67.96214294433594	-1347.361083984375	37.10012435913086	-11.81165790557861	
